<svg width="1109" height="181" viewBox="0 0 1109 181" version="1.1" xmlns="http://www.w3.org/2000/svg" xmlns:xlink="http://www.w3.org/1999/xlink">
<title>teamlog-logo-text</title>
<desc>Created using Figma</desc>
<g id="Canvas" transform="translate(618 208)">
<g id="teamlog-logo-text">
<g id="teamlog-logo">
<g id="Rectangle">
<use xlink:href="#path0_fill" transform="translate(-571 -161)" fill="#F25827"/>
</g>
<g id="Rectangle">
<use xlink:href="#path0_fill" transform="translate(-618 -161)" fill="#808080"/>
</g>
<g id="Rectangle">
<use xlink:href="#path0_fill" transform="translate(-524 -114)" fill="#666666"/>
</g>
<g id="Rectangle">
<use xlink:href="#path0_fill" transform="translate(-571 -114)" fill="#999999"/>
</g>
<g id="Rectangle">
<use xlink:href="#path0_fill" transform="translate(-571 -67)" fill="#4D4D4D"/>
</g>
<g id="Rectangle">
<use xlink:href="#path0_fill" transform="translate(-477 -114)" fill="#C3262E"/>
</g>
<g id="Rectangle">
<use xlink:href="#path0_fill" transform="translate(-524 -208)" fill="#C2272D"/>
</g>
<g id="Rectangle">
<use xlink:href="#path0_fill" transform="translate(-524 -161)" fill="#EB1C26"/>
</g>
</g>
<g id="&#234;&#184;&#128;&#236;&#158;&#144;">
<g id="TEAM">
<use xlink:href="#path1_fill" transform="translate(-403 -166)" fill="#4D4D4D"/>
</g>
<g id="LOG">
<use xlink:href="#path2_fill" transform="translate(139 -166)" fill="#C2282A"/>
</g>
</g>
</g>
</g>
<defs>
<path id="path0_fill" d="M 0 8C 0 3.58172 3.58172 0 8 0L 32 0C 36.4183 0 40 3.58172 40 8L 40 32C 40 36.4183 36.4183 40 32 40L 8 40C 3.58172 40 0 36.4183 0 32L 0 8Z"/>
<path id="path1_fill" d="M 103.552 6.608L 0 6.608L 0 12.624L 48.768 12.624L 48.768 98L 54.912 98L 54.912 12.624L 103.552 12.624L 103.552 6.608ZM 134.714 12.624L 217.018 12.624L 217.018 6.608L 134.714 6.608C 124.602 6.608 116.41 14.8 116.41 24.912L 116.41 79.696C 116.41 89.808 124.602 98 134.714 98L 217.018 98L 217.018 91.856L 134.714 91.856C 127.93 91.856 122.554 86.48 122.554 79.696L 122.554 55.376L 217.018 55.376L 217.018 49.232L 122.554 49.232L 122.554 24.912C 122.554 18.128 127.93 12.624 134.714 12.624ZM 317.696 6.608L 250.624 6.608C 240.512 6.608 232.32 14.8 232.32 24.912L 232.32 98L 238.464 98L 238.464 55.376L 329.856 55.376L 329.856 98L 335.872 98L 335.872 24.912C 335.872 14.8 327.68 6.608 317.696 6.608ZM 238.464 49.232L 238.464 24.912C 238.464 18.128 243.84 12.624 250.624 12.624L 317.696 12.624C 324.352 12.624 329.856 18.128 329.856 24.912L 329.856 49.232L 238.464 49.232ZM 467.07 98L 473.086 98L 473.086 12.624C 473.086 9.296 470.398 6.608 467.07 6.608L 460.926 6.608C 458.366 6.608 455.294 8.016 453.63 9.936L 412.926 57.296C 412.542 57.808 411.774 57.808 411.39 57.296L 370.814 9.936C 369.022 8.016 365.95 6.608 363.39 6.608L 357.374 6.608C 353.918 6.608 351.23 9.296 351.23 12.624L 351.23 98L 357.374 98L 357.374 12.624L 363.39 12.624C 364.158 12.624 365.566 13.264 366.078 13.904L 408.19 63.056C 410.366 65.616 413.95 65.616 416.126 63.056L 458.238 13.904C 458.75 13.264 460.158 12.624 460.926 12.624L 467.07 12.624L 467.07 98Z"/>
<path id="path2_fill" d="M 22.144 98L 102.272 98L 102.272 84.176L 22.144 84.176C 17.536 84.176 13.824 80.464 13.824 75.856L 13.824 6.608L 0 6.608L 0 75.856C 0 88.144 9.856 98 22.144 98ZM 139.804 98L 206.876 98C 219.036 98 228.892 88.144 228.892 75.856L 228.892 28.752C 228.892 16.464 219.036 6.608 206.876 6.608L 139.804 6.608C 127.516 6.608 117.66 16.464 117.66 28.752L 117.66 75.856C 117.66 88.144 127.516 98 139.804 98ZM 139.804 20.304L 206.876 20.304C 211.484 20.304 215.196 24.144 215.196 28.752L 215.196 75.856C 215.196 80.464 211.484 84.176 206.876 84.176L 139.804 84.176C 135.196 84.176 131.484 80.464 131.484 75.856L 131.484 28.752C 131.484 24.144 135.196 20.304 139.804 20.304ZM 262.589 98L 329.661 98C 341.821 98 351.677 88.144 351.677 75.856L 351.677 45.392L 283.069 45.392L 283.069 59.216L 337.981 59.216L 337.981 75.856C 337.981 80.464 334.269 84.176 329.661 84.176L 262.589 84.176C 257.981 84.176 254.269 80.464 254.269 75.856L 254.269 28.752C 254.269 24.144 257.981 20.304 262.589 20.304L 348.733 20.304L 348.733 6.608L 262.589 6.608C 250.301 6.608 240.445 16.464 240.445 28.752L 240.445 75.856C 240.445 88.144 250.301 98 262.589 98Z"/>
</defs>
</svg>
