<?xml version="1.0" encoding="utf-8"?>
<!-- Generator: Adobe Illustrator 16.0.0, SVG Export Plug-In . SVG Version: 6.00 Build 0)  -->
<!DOCTYPE svg PUBLIC "-//W3C//DTD SVG 1.1//EN" "http://www.w3.org/Graphics/SVG/1.1/DTD/svg11.dtd">
<svg version="1.1" id="Layer_1" xmlns="http://www.w3.org/2000/svg" xmlns:xlink="http://www.w3.org/1999/xlink" x="0px" y="0px"
	 width="300px" height="300px" viewBox="0 0 300 300" enable-background="new 0 0 300 300" xml:space="preserve">
<g>
	<path fill-rule="evenodd" clip-rule="evenodd" fill="#FFFFFF" d="M66.548,112.291c0,6.163,0.021,12.326-0.005,18.489
		c-0.033,8.315-4.845,13.58-13.106,13.711c-12.656,0.2-25.32,0.178-37.978,0.002c-6.995-0.097-12.883-6.116-12.963-13.161
		c-0.145-12.824-0.143-25.653-0.004-38.479c0.084-7.841,5.689-13.304,13.612-13.372c12.492-0.106,24.986-0.079,37.479-0.01
		c7.511,0.041,12.855,5.366,12.946,12.83C66.611,98.964,66.547,105.628,66.548,112.291z"/>
	<path fill-rule="evenodd" clip-rule="evenodd" fill="#FFFFFF" d="M222.807,111.997c0.001,6.492,0.02,12.984-0.004,19.476
		c-0.027,7.778-5.008,13.172-12.806,13.282c-12.981,0.185-25.968,0.141-38.95,0.012c-6.286-0.062-12.751-6.508-12.813-12.787
		c-0.131-13.315-0.152-26.635,0.006-39.95c0.086-7.177,5.655-12.711,12.845-12.792c13.315-0.149,26.635-0.14,39.95,0
		c6.361,0.067,11.67,5.759,11.752,12.285C222.873,98.347,222.807,105.172,222.807,111.997z"/>
	<path fill-rule="evenodd" clip-rule="evenodd" fill="#FFFFFF" d="M222.848,35.896c0,6.166-0.36,12.358,0.085,18.492
		c0.664,9.136-6.554,14.183-13.975,14.372c-12.324,0.315-24.664,0.225-36.994,0.035c-7.757-0.118-13.674-6.133-13.767-13.921
		c-0.156-12.997-0.188-25.999,0.013-38.995c0.121-7.771,5.558-12.709,13.381-12.722c12.666-0.02,25.332-0.026,37.997,0.003
		c7.995,0.019,13.221,5.255,13.254,13.236C222.869,22.896,222.848,29.396,222.848,35.896z"/>
	<path fill-rule="evenodd" clip-rule="evenodd" fill="#FFFFFF" d="M145.716,112.326c0,6.322,0.017,12.646-0.005,18.968
		c-0.025,7.861-4.918,13.241-12.751,13.363c-12.975,0.202-25.956,0.16-38.932,0.012c-6.503-0.075-12.555-6.399-12.676-13.47
		c-0.219-12.808-0.269-25.627,0.013-38.432c0.185-8.354,5.954-13.46,14.376-13.477c12.312-0.025,24.624-0.033,36.937,0.004
		c7.649,0.022,12.989,5.397,13.03,13.065C145.743,99.016,145.715,105.671,145.716,112.326z"/>
	<path fill-rule="evenodd" clip-rule="evenodd" fill="#FFFFFF" d="M145.836,269.176c0,5.999-0.365,12.025,0.084,17.99
		c0.713,9.46-6.506,14.335-13.766,14.563c-12.152,0.381-24.34,0.457-36.486-0.011c-9.593-0.37-14.429-5.985-14.486-15.176
		c-0.073-11.665,0.003-23.33-0.024-34.994c-0.022-9.78,5.566-16.018,15.321-15.527c11.969,0.601,23.989,0.123,35.987,0.15
		c8.466,0.019,13.341,4.962,13.366,13.508C145.852,256.178,145.836,262.677,145.836,269.176z"/>
	<path fill-rule="evenodd" clip-rule="evenodd" fill="#FFFFFF" d="M267.576,221.848c-6.656,0-13.312,0.013-19.968-0.003
		c-6.437-0.016-12.305-5.17-12.393-11.475c-0.19-13.643-0.308-27.296,0.05-40.932c0.179-6.829,5.762-12.818,13.083-12.463
		c12.949,0.629,25.95,0.167,38.931,0.181c7.183,0.007,12.485,5.06,12.538,12.242c0.101,13.479,0.117,26.958-0.008,40.436
		c-0.064,6.934-5.396,11.987-12.265,12.009C280.889,221.864,274.232,221.848,267.576,221.848z"/>
	<path fill-rule="evenodd" clip-rule="evenodd" fill="#FFFFFF" d="M190.47,221.72c-6.329,0-12.715-0.538-18.971,0.136
		c-7.881,0.849-13.093-6.481-13.169-12.944c-0.154-12.988-0.205-25.981,0.014-38.968c0.132-7.825,5.53-12.647,13.468-12.658
		c12.823-0.018,25.646-0.016,38.469,0c6.995,0.009,12.321,4.938,12.396,11.896c0.142,13.488,0.125,26.979,0.007,40.468
		c-0.062,6.996-5.337,12.044-12.229,12.066C203.792,221.736,197.131,221.72,190.47,221.72z"/>
</g>
<path fill-rule="evenodd" clip-rule="evenodd" fill="#FFFFFF" d="M113.558,221.848c-6.656,0-13.312,0.013-19.968-0.003
	c-6.437-0.016-12.305-5.17-12.393-11.475c-0.19-13.643-0.308-27.296,0.05-40.932c0.179-6.829,5.762-12.818,13.083-12.463
	c12.949,0.629,25.95,0.167,38.931,0.181c7.183,0.007,12.485,5.06,12.538,12.242c0.101,13.479,0.117,26.958-0.008,40.436
	c-0.064,6.934-5.396,11.987-12.265,12.009C126.871,221.864,120.214,221.848,113.558,221.848z"/>
</svg>
